<svg xmlns="http://www.w3.org/2000/svg" width="1440" height="496" fill="none"><g fill="#372B43" fill-opacity=".62" opacity=".5"><path d="M-225.25 334.5h-26.25V492h30.406V389.188L-148.906 492h26.25V334.5h-30.188v102.813L-225.25 334.5ZM-20.049 495.281c21.875 0 43.531-8.312 57.969-25.812 12.906-15.75 17.937-34.344 18.375-56.219-.438-21-5.031-40.25-18.375-56.437-14-17.063-35.219-25.594-57.969-25.594s-44.187 8.312-57.969 25.594c-12.687 15.312-18.375 35.437-18.375 56.437s5.688 40.906 18.375 56.219c13.563 17.062 35.438 25.812 57.97 25.812Zm0-28c-13.562.219-26.687-5.25-34.344-15.75-8.093-10.5-10.5-24.5-10.718-38.281.218-13.781 2.625-28 10.718-38.281 7.657-10.5 20.782-15.969 34.344-15.75 13.563-.219 26.469 5.25 34.344 15.75 7.875 10.281 10.5 24.5 10.5 38.281 0 13.781-2.625 27.781-10.5 38.281S-6.486 467.5-20.05 467.281ZM192.016 334.5H62.953v29.75h49.656V492h29.75V364.25h49.657V334.5ZM301.09 492h30.625L283.59 334.5h-44.406L191.059 492h30.625l7.437-24.5h64.313l7.656 24.5Zm-63.438-52.5 23.407-77 23.843 77h-47.25ZM456.279 415.219a72.71 72.71 0 0 0-7.875-8.531c.219-.219.657-.657.875-1.094 5.907-7.438 9.407-17.063 9.188-26.25-.219-9.625-3.281-19.25-9.188-26.688-5.25-7.656-13.343-13.343-22.531-15.968-4.375-1.532-8.969-2.188-13.562-2.188h-62.782V492h66.5c5.032 0 10.063-1.094 14.875-2.406 9.625-3.063 18.375-8.969 24.5-17.063 6.125-8.531 9.407-18.593 9.407-28.656 0-10.5-3.282-20.562-9.407-28.656Zm-43.312-52.938c3.5 0 8.75 2.844 10.937 5.688 2.844 3.062 4.157 7.219 4.375 11.375.219 3.719-1.312 7.437-3.718 10.281-2.407 3.063-6.782 5.469-9.844 6.125h-34.125v-33.469h32.375Zm22.75 81.594c-.219 5.688-2.188 11.156-6.563 14.875-3.5 3.063-7.875 5.25-12.687 5.25h-35.875v-40.25h35.875c5.031 0 9.187 1.094 13.562 5.469 3.719 3.937 5.907 9.406 5.688 14.656Z"/></g><g fill="#372B43" fill-opacity=".62" opacity=".5"><path d="M847.75 3.5H821.5V161h30.406V58.187L924.094 161h26.25V3.5h-30.188v102.813L847.75 3.5ZM1052.95 164.281c21.88 0 43.53-8.312 57.97-25.812 12.91-15.75 17.94-34.344 18.37-56.219-.43-21-5.03-40.25-18.37-56.438C1096.92 8.75 1075.7.22 1052.95.22s-44.19 8.312-57.968 25.593c-12.687 15.313-18.375 35.438-18.375 56.438s5.688 40.906 18.375 56.219c13.558 17.062 35.438 25.812 57.968 25.812Zm0-28c-13.56.219-26.69-5.25-34.34-15.75-8.1-10.5-10.5-24.5-10.72-38.281.22-13.781 2.62-28 10.72-38.281 7.65-10.5 20.78-15.969 34.34-15.75 13.56-.219 26.47 5.25 34.34 15.75 7.88 10.281 10.5 24.5 10.5 38.281 0 13.781-2.62 27.781-10.5 38.281-7.87 10.5-20.78 15.969-34.34 15.75ZM1265.02 3.5h-129.07v29.75h49.66V161h29.75V33.25h49.66V3.5ZM1374.09 161h30.62L1356.59 3.5h-44.41L1264.06 161h30.62l7.44-24.5h64.31l7.66 24.5Zm-63.44-52.5 23.41-77 23.84 77h-47.25ZM1529.28 84.219a72.623 72.623 0 0 0-7.88-8.531c.22-.22.66-.657.88-1.094 5.91-7.438 9.41-17.063 9.19-26.25-.22-9.625-3.28-19.25-9.19-26.688-5.25-7.656-13.34-13.343-22.53-15.968-4.38-1.532-8.97-2.188-13.56-2.188h-62.79V161h66.5c5.04 0 10.07-1.094 14.88-2.406 9.62-3.063 18.37-8.969 24.5-17.063 6.12-8.531 9.41-18.593 9.41-28.656 0-10.5-3.29-20.563-9.41-28.656Zm-43.31-52.938c3.5 0 8.75 2.844 10.93 5.688 2.85 3.062 4.16 7.218 4.38 11.375.22 3.718-1.31 7.437-3.72 10.281-2.41 3.063-6.78 5.469-9.84 6.125h-34.13V31.281h32.38Zm22.75 81.594c-.22 5.688-2.19 11.156-6.57 14.875-3.5 3.063-7.87 5.25-12.68 5.25h-35.88V92.75h35.88c5.03 0 9.18 1.094 13.56 5.469 3.72 3.937 5.91 9.406 5.69 14.656Z"/></g><g fill="#372B43" fill-opacity=".62" opacity=".5"><path d="M996.75 290.5H970.5V448h30.41V345.188L1073.09 448h26.25V290.5h-30.18v102.813L996.75 290.5ZM1201.95 451.281c21.88 0 43.53-8.312 57.97-25.812 12.91-15.75 17.94-34.344 18.37-56.219-.43-21-5.03-40.25-18.37-56.437-14-17.063-35.22-25.594-57.97-25.594s-44.19 8.312-57.97 25.594c-12.69 15.312-18.37 35.437-18.37 56.437s5.68 40.906 18.37 56.219c13.56 17.062 35.44 25.812 57.97 25.812Zm0-28c-13.56.219-26.69-5.25-34.34-15.75-8.1-10.5-10.5-24.5-10.72-38.281.22-13.781 2.62-28 10.72-38.281 7.65-10.5 20.78-15.969 34.34-15.75 13.56-.219 26.47 5.25 34.34 15.75 7.88 10.281 10.5 24.5 10.5 38.281 0 13.781-2.62 27.781-10.5 38.281-7.87 10.5-20.78 15.969-34.34 15.75ZM1414.02 290.5h-129.07v29.75h49.66V448h29.75V320.25h49.66V290.5ZM1523.09 448h30.62l-48.12-157.5h-44.41L1413.06 448h30.62l7.44-24.5h64.31l7.66 24.5Zm-63.44-52.5 23.41-77 23.84 77h-47.25ZM1678.28 371.219a72.58 72.58 0 0 0-7.88-8.531c.22-.219.66-.657.88-1.094 5.91-7.438 9.41-17.063 9.19-26.25-.22-9.625-3.28-19.25-9.19-26.688-5.25-7.656-13.34-13.343-22.53-15.968-4.38-1.532-8.97-2.188-13.56-2.188h-62.79V448h66.5c5.04 0 10.07-1.094 14.88-2.406 9.62-3.063 18.37-8.969 24.5-17.063 6.12-8.531 9.41-18.593 9.41-28.656 0-10.5-3.29-20.562-9.41-28.656Zm-43.31-52.938c3.5 0 8.75 2.844 10.93 5.688 2.85 3.062 4.16 7.219 4.38 11.375.22 3.719-1.31 7.437-3.72 10.281-2.41 3.063-6.78 5.469-9.84 6.125h-34.13v-33.469h32.38Zm22.75 81.594c-.22 5.688-2.19 11.156-6.57 14.875-3.5 3.063-7.87 5.25-12.68 5.25h-35.88v-40.25h35.88c5.03 0 9.18 1.094 13.56 5.469 3.72 3.937 5.91 9.406 5.69 14.656Z"/></g><g fill="#372B43" fill-opacity=".62" opacity=".5"><path d="M-43.25 3.5H-69.5V161h30.406V58.187L33.094 161h26.25V3.5H29.156v102.813L-43.25 3.5ZM161.951 164.281c21.875 0 43.531-8.312 57.969-25.812 12.906-15.75 17.937-34.344 18.375-56.219-.438-21-5.031-40.25-18.375-56.438C205.92 8.75 184.701.22 161.951.22s-44.187 8.312-57.969 25.593C91.295 41.126 85.607 61.25 85.607 82.25s5.688 40.906 18.375 56.219c13.563 17.062 35.438 25.812 57.969 25.812Zm0-28c-13.562.219-26.687-5.25-34.344-15.75-8.093-10.5-10.5-24.5-10.718-38.281.218-13.781 2.625-28 10.718-38.281 7.657-10.5 20.782-15.969 34.344-15.75 13.563-.219 26.469 5.25 34.344 15.75 7.875 10.281 10.5 24.5 10.5 38.281 0 13.781-2.625 27.781-10.5 38.281s-20.781 15.969-34.344 15.75ZM374.016 3.5H244.953v29.75h49.656V161h29.75V33.25h49.657V3.5ZM483.09 161h30.625L465.59 3.5h-44.406L373.059 161h30.625l7.437-24.5h64.313l7.656 24.5Zm-63.438-52.5 23.407-77 23.843 77h-47.25ZM638.279 84.219a72.753 72.753 0 0 0-7.875-8.531c.219-.22.657-.657.875-1.094 5.907-7.438 9.407-17.063 9.188-26.25-.219-9.625-3.281-19.25-9.188-26.688-5.25-7.656-13.343-13.343-22.531-15.968-4.375-1.532-8.969-2.188-13.562-2.188h-62.782V161h66.5c5.032 0 10.063-1.094 14.875-2.406 9.625-3.063 18.375-8.969 24.5-17.063 6.125-8.531 9.407-18.593 9.407-28.656 0-10.5-3.282-20.563-9.407-28.656ZM594.967 31.28c3.5 0 8.75 2.844 10.937 5.688 2.844 3.062 4.157 7.218 4.375 11.375.219 3.718-1.312 7.437-3.718 10.281-2.407 3.063-6.782 5.469-9.844 6.125h-34.125V31.281h32.375Zm22.75 81.594c-.219 5.688-2.188 11.156-6.563 14.875-3.5 3.063-7.875 5.25-12.687 5.25h-35.875V92.75h35.875c5.031 0 9.187 1.094 13.562 5.469 3.719 3.937 5.907 9.406 5.688 14.656Z"/></g></svg>